<svg width="18" height="17" viewBox="0 0 18 17" fill="none" xmlns="http://www.w3.org/2000/svg">
<path d="M17.2595 1.47841H13.562V0.740597C13.5624 0.643238 13.5435 0.546769 13.5064 0.456751C13.4693 0.366733 13.4148 0.284945 13.346 0.216102C13.2771 0.147258 13.1953 0.0927208 13.1053 0.0556325C13.0153 0.0185442 12.9188 -0.000361469 12.8215 5.23399e-06H5.42664C5.32928 -0.000361469 5.23281 0.0185442 5.14279 0.0556325C5.05278 0.0927208 4.97099 0.147258 4.90214 0.216102C4.8333 0.284945 4.77876 0.366733 4.74167 0.456751C4.70459 0.546769 4.68568 0.643238 4.68605 0.740597V1.47841H0.988638C0.792221 1.47841 0.603849 1.55644 0.464961 1.69533C0.326073 1.83422 0.248047 2.02259 0.248047 2.21901C0.248047 2.41542 0.326073 2.60379 0.464961 2.74268C0.603849 2.88157 0.792221 2.9596 0.988638 2.9596H2.46705V14.0546C2.46705 14.6431 2.70083 15.2075 3.11698 15.6237C3.53312 16.0398 4.09753 16.2736 4.68605 16.2736H13.562C14.1506 16.2736 14.715 16.0398 15.1311 15.6237C15.5473 15.2075 15.781 14.6431 15.781 14.0546V2.9596H17.2595C17.4559 2.9596 17.6442 2.88157 17.7831 2.74268C17.922 2.60379 18 2.41542 18 2.21901C18 2.02259 17.922 1.83422 17.7831 1.69533C17.6442 1.55644 17.4559 1.47841 17.2595 1.47841ZM14.3026 14.0546C14.3019 14.2505 14.2236 14.4382 14.0847 14.5765C13.9459 14.7148 13.758 14.7924 13.562 14.7924H4.68605C4.49011 14.7924 4.30216 14.7148 4.16335 14.5765C4.02454 14.4382 3.94619 14.2505 3.94546 14.0546V2.9596H14.3026V14.0546Z" fill="#D74E09"/>
<path d="M6.90505 12.5734C7.10099 12.5734 7.28894 12.4957 7.42775 12.3574C7.56656 12.2192 7.64491 12.0315 7.64564 11.8356V5.91637C7.64564 5.71996 7.56762 5.53158 7.42873 5.3927C7.28984 5.25381 7.10147 5.17578 6.90505 5.17578C6.70863 5.17578 6.52026 5.25381 6.38137 5.3927C6.24249 5.53158 6.16446 5.71996 6.16446 5.91637V11.8356C6.16519 12.0315 6.24354 12.2192 6.38235 12.3574C6.52116 12.4957 6.70911 12.5734 6.90505 12.5734Z" fill="#D74E09"/>
<path d="M11.3431 12.5734C11.539 12.5734 11.727 12.4957 11.8658 12.3574C12.0046 12.2192 12.0829 12.0315 12.0837 11.8356V5.91637C12.0837 5.71996 12.0056 5.53158 11.8667 5.3927C11.7279 5.25381 11.5395 5.17578 11.3431 5.17578C11.1467 5.17578 10.9583 5.25381 10.8194 5.3927C10.6805 5.53158 10.6025 5.71996 10.6025 5.91637V11.8356C10.6032 12.0315 10.6816 12.2192 10.8204 12.3574C10.9592 12.4957 11.1471 12.5734 11.3431 12.5734Z" fill="#D74E09"/>
</svg>
