<svg width="24" height="24" viewBox="0 0 24 24" fill="none" xmlns="http://www.w3.org/2000/svg">
<g clip-path="url(#clip0_1_1337)">
<circle cx="12" cy="12" r="12" fill="#D74E09"/>
<path d="M14.8003 10.25H12.4378V12.84L13.6453 11.6325C13.7328 11.545 13.8437 11.5042 13.9545 11.5042C14.0653 11.5042 14.1762 11.545 14.2637 11.6325C14.4328 11.8017 14.4328 12.0817 14.2637 12.2508L12.3095 14.205C12.1403 14.3742 11.8603 14.3742 11.6912 14.205L9.73699 12.2508C9.56783 12.0817 9.56783 11.8017 9.73699 11.6325C9.90616 11.4633 10.1862 11.4633 10.3553 11.6325L11.5628 12.84V10.25H9.20033C7.33366 10.25 6.16699 11.4167 6.16699 13.2833V14.7942C6.16699 16.6667 7.33366 17.8333 9.20033 17.8333H14.7945C16.6612 17.8333 17.8278 16.6667 17.8278 14.8V13.2833C17.8337 11.4167 16.667 10.25 14.8003 10.25Z" fill="white"/>
<path d="M12.4375 6.60449C12.4375 6.36533 12.2392 6.16699 12 6.16699C11.7608 6.16699 11.5625 6.36533 11.5625 6.60449V10.2503H12.4375V6.60449Z" fill="white"/>
</g>
<defs>
<clipPath id="clip0_1_1337">
<rect width="24" height="24" fill="white"/>
</clipPath>
</defs>
</svg>
