<svg width="32" height="32" viewBox="0 0 32 32" fill="none" xmlns="http://www.w3.org/2000/svg">
<mask id="mask0_253_835" style="mask-type:alpha" maskUnits="userSpaceOnUse" x="0" y="0" width="32" height="32">
<rect width="32" height="32" fill="#D9D9D9"/>
</mask>
<g mask="url(#mask0_253_835)">
<path d="M16.0001 17.9998L24.0001 12.6665L16.0001 7.33317V17.9998ZM17.1001 25.3332H24.4001C24.2667 25.8665 24.0001 26.3276 23.6001 26.7165C23.2001 27.1054 22.7112 27.3332 22.1334 27.3998L7.60007 29.1665C6.86674 29.2554 6.20563 29.0776 5.61674 28.6332C5.02785 28.1887 4.68896 27.5998 4.60007 26.8665L2.86674 12.2665C2.77785 11.5332 2.96118 10.8776 3.41674 10.2998C3.87229 9.72206 4.46674 9.38873 5.20007 9.29984L6.70007 9.13317V11.7998L5.50007 11.9332L7.30007 26.5332L17.1001 25.3332ZM12.0334 22.6665C11.3001 22.6665 10.6723 22.4054 10.1501 21.8832C9.62785 21.361 9.36674 20.7332 9.36674 19.9998V5.33317C9.36674 4.59984 9.62785 3.97206 10.1501 3.44984C10.6723 2.92762 11.3001 2.6665 12.0334 2.6665H26.7001C27.4334 2.6665 28.0612 2.92762 28.5834 3.44984C29.1056 3.97206 29.3667 4.59984 29.3667 5.33317V19.9998C29.3667 20.7332 29.1056 21.361 28.5834 21.8832C28.0612 22.4054 27.4334 22.6665 26.7001 22.6665H12.0334ZM12.0334 19.9998H26.7001V5.33317H12.0334V19.9998Z" fill="#A1A1A1"/>
</g>
</svg>
