<svg width="138" height="95" viewBox="0 0 138 95" fill="none" xmlns="http://www.w3.org/2000/svg">
<rect width="138" height="95" rx="3" fill="#424242"/>
<path d="M48.258 66.002C48.7807 66.0953 49.224 66.3707 49.588 66.828C49.952 67.2853 50.134 67.8033 50.134 68.382C50.134 68.8767 50.0033 69.3247 49.742 69.726C49.49 70.118 49.1213 70.4307 48.636 70.664C48.1507 70.888 47.586 71 46.942 71H43.05V61.27H46.76C47.4227 61.27 47.992 61.382 48.468 61.606C48.944 61.83 49.3033 62.1333 49.546 62.516C49.7887 62.8893 49.91 63.3093 49.91 63.776C49.91 64.336 49.7607 64.8027 49.462 65.176C49.1633 65.5493 48.762 65.8247 48.258 66.002ZM44.646 65.358H46.62C47.1427 65.358 47.5487 65.2413 47.838 65.008C48.1367 64.7653 48.286 64.42 48.286 63.972C48.286 63.5333 48.1367 63.1927 47.838 62.95C47.5487 62.698 47.1427 62.572 46.62 62.572H44.646V65.358ZM46.802 69.698C47.3433 69.698 47.768 69.5673 48.076 69.306C48.384 69.0447 48.538 68.6807 48.538 68.214C48.538 67.738 48.3747 67.36 48.048 67.08C47.7213 66.8 47.2873 66.66 46.746 66.66H44.646V69.698H46.802ZM58.8544 63.286V71H57.2584V70.09C57.0064 70.4073 56.675 70.6593 56.2644 70.846C55.863 71.0233 55.4337 71.112 54.9764 71.112C54.3697 71.112 53.8237 70.986 53.3384 70.734C52.8624 70.482 52.4844 70.1087 52.2044 69.614C51.9337 69.1193 51.7984 68.522 51.7984 67.822V63.286H53.3804V67.584C53.3804 68.2747 53.553 68.8067 53.8984 69.18C54.2437 69.544 54.715 69.726 55.3124 69.726C55.9097 69.726 56.381 69.544 56.7264 69.18C57.081 68.8067 57.2584 68.2747 57.2584 67.584V63.286H58.8544ZM62.8222 64.588V68.858C62.8222 69.1473 62.8875 69.3573 63.0182 69.488C63.1582 69.6093 63.3915 69.67 63.7182 69.67H64.6982V71H63.4382C62.7195 71 62.1688 70.832 61.7862 70.496C61.4035 70.16 61.2122 69.614 61.2122 68.858V64.588H60.3022V63.286H61.2122V61.368H62.8222V63.286H64.6982V64.588H62.8222ZM68.0311 64.588V68.858C68.0311 69.1473 68.0965 69.3573 68.2271 69.488C68.3671 69.6093 68.6005 69.67 68.9271 69.67H69.9071V71H68.6471C67.9285 71 67.3778 70.832 66.9951 70.496C66.6125 70.16 66.4211 69.614 66.4211 68.858V64.588H65.5111V63.286H66.4211V61.368H68.0311V63.286H69.9071V64.588H68.0311ZM74.7241 71.126C73.9961 71.126 73.3381 70.9627 72.7501 70.636C72.1621 70.3 71.7001 69.8333 71.3641 69.236C71.0281 68.6293 70.8601 67.9293 70.8601 67.136C70.8601 66.352 71.0328 65.6567 71.3781 65.05C71.7235 64.4433 72.1948 63.9767 72.7921 63.65C73.3895 63.3233 74.0568 63.16 74.7941 63.16C75.5315 63.16 76.1988 63.3233 76.7961 63.65C77.3935 63.9767 77.8648 64.4433 78.2101 65.05C78.5555 65.6567 78.7281 66.352 78.7281 67.136C78.7281 67.92 78.5508 68.6153 78.1961 69.222C77.8415 69.8287 77.3561 70.3 76.7401 70.636C76.1335 70.9627 75.4615 71.126 74.7241 71.126ZM74.7241 69.74C75.1348 69.74 75.5175 69.642 75.8721 69.446C76.2361 69.25 76.5301 68.956 76.7541 68.564C76.9781 68.172 77.0901 67.696 77.0901 67.136C77.0901 66.576 76.9828 66.1047 76.7681 65.722C76.5535 65.33 76.2688 65.036 75.9141 64.84C75.5595 64.644 75.1768 64.546 74.7661 64.546C74.3555 64.546 73.9728 64.644 73.6181 64.84C73.2728 65.036 72.9975 65.33 72.7921 65.722C72.5868 66.1047 72.4841 66.576 72.4841 67.136C72.4841 67.9667 72.6941 68.6107 73.1141 69.068C73.5435 69.516 74.0801 69.74 74.7241 69.74ZM84.1979 63.16C84.8045 63.16 85.3459 63.286 85.8219 63.538C86.3072 63.79 86.6852 64.1633 86.9559 64.658C87.2265 65.1527 87.3619 65.75 87.3619 66.45V71H85.7799V66.688C85.7799 65.9973 85.6072 65.47 85.2619 65.106C84.9165 64.7327 84.4452 64.546 83.8479 64.546C83.2505 64.546 82.7745 64.7327 82.4199 65.106C82.0745 65.47 81.9019 65.9973 81.9019 66.688V71H80.3059V63.286H81.9019V64.168C82.1632 63.8507 82.4945 63.6033 82.8959 63.426C83.3065 63.2487 83.7405 63.16 84.1979 63.16ZM92.1977 71.126C91.591 71.126 91.045 71.0187 90.5597 70.804C90.0837 70.58 89.7057 70.2813 89.4257 69.908C89.1457 69.5253 88.9963 69.1007 88.9777 68.634H90.6297C90.6577 68.9607 90.8117 69.236 91.0917 69.46C91.381 69.6747 91.7403 69.782 92.1697 69.782C92.6177 69.782 92.963 69.698 93.2057 69.53C93.4577 69.3527 93.5837 69.1287 93.5837 68.858C93.5837 68.5687 93.4437 68.354 93.1637 68.214C92.893 68.074 92.459 67.92 91.8617 67.752C91.283 67.5933 90.8117 67.4393 90.4477 67.29C90.0837 67.1407 89.7663 66.912 89.4957 66.604C89.2343 66.296 89.1037 65.89 89.1037 65.386C89.1037 64.9753 89.225 64.602 89.4677 64.266C89.7103 63.9207 90.0557 63.65 90.5037 63.454C90.961 63.258 91.4837 63.16 92.0717 63.16C92.949 63.16 93.6537 63.384 94.1857 63.832C94.727 64.2707 95.0163 64.8727 95.0537 65.638H93.4577C93.4297 65.2927 93.2897 65.0173 93.0377 64.812C92.7857 64.6067 92.445 64.504 92.0157 64.504C91.5957 64.504 91.2737 64.5833 91.0497 64.742C90.8257 64.9007 90.7137 65.1107 90.7137 65.372C90.7137 65.5773 90.7883 65.75 90.9377 65.89C91.087 66.03 91.269 66.142 91.4837 66.226C91.6983 66.3007 92.0157 66.3987 92.4357 66.52C92.9957 66.6693 93.453 66.8233 93.8077 66.982C94.1717 67.1313 94.4843 67.3553 94.7457 67.654C95.007 67.9527 95.1423 68.3493 95.1517 68.844C95.1517 69.2827 95.0303 69.6747 94.7877 70.02C94.545 70.3653 94.1997 70.636 93.7517 70.832C93.313 71.028 92.795 71.126 92.1977 71.126Z" fill="white"/>
<path d="M64.6667 39.2083V36.3333M64.6667 36.3333V26.75C64.6667 26.2417 64.8686 25.7542 65.228 25.3947C65.5875 25.0353 66.075 24.8333 66.5833 24.8333C67.0917 24.8333 67.5792 25.0353 67.9386 25.3947C68.2981 25.7542 68.5 26.2417 68.5 26.75V34.4167H74.9266C76.6707 34.4167 78.0833 35.8293 78.0833 37.5734V39.2083C78.0833 41.4958 77.1746 43.6896 75.5571 45.3071C73.9396 46.9246 71.7458 47.8333 69.4583 47.8333H68.5C66.4667 47.8333 64.5166 47.0256 63.0788 45.5878C61.6411 44.15 60.8333 42.2 60.8333 40.1667C60.8333 39.15 61.2372 38.175 61.9561 37.4561C62.675 36.7372 63.65 36.3333 64.6667 36.3333ZM71.375 30.5833H75.2083C76.4792 30.5833 77.6979 30.0785 78.5966 29.1799C79.4952 28.2813 80 27.0625 80 25.7917C80 24.5208 79.4952 23.3021 78.5966 22.4034C77.6979 21.5048 76.4792 21 75.2083 21H61.7917C60.5208 21 59.3021 21.5048 58.4034 22.4034C57.5048 23.3021 57 24.5208 57 25.7917C57 27.0625 57.5048 28.2813 58.4034 29.1799C59.3021 30.0785 60.5208 30.5833 61.7917 30.5833" stroke="white" stroke-width="2.5"/>
</svg>
