<svg width="138" height="95" viewBox="0 0 138 95" fill="none" xmlns="http://www.w3.org/2000/svg">
<rect width="138" height="95" rx="3" fill="#424242"/>
<path d="M48.646 59.27V69H47.05V59.27H48.646ZM60.0794 61.16C60.6861 61.16 61.2274 61.286 61.7034 61.538C62.1887 61.79 62.5667 62.1633 62.8374 62.658C63.1174 63.1527 63.2574 63.75 63.2574 64.45V69H61.6754V64.688C61.6754 63.9973 61.5027 63.47 61.1574 63.106C60.8121 62.7327 60.3407 62.546 59.7434 62.546C59.1461 62.546 58.6701 62.7327 58.3154 63.106C57.9701 63.47 57.7974 63.9973 57.7974 64.688V69H56.2154V64.688C56.2154 63.9973 56.0427 63.47 55.6974 63.106C55.3521 62.7327 54.8807 62.546 54.2834 62.546C53.6861 62.546 53.2101 62.7327 52.8554 63.106C52.5101 63.47 52.3374 63.9973 52.3374 64.688V69H50.7414V61.286H52.3374V62.168C52.5987 61.8507 52.9301 61.6033 53.3314 61.426C53.7327 61.2487 54.1621 61.16 54.6194 61.16C55.2354 61.16 55.7861 61.2907 56.2714 61.552C56.7567 61.8133 57.1301 62.1913 57.3914 62.686C57.6247 62.2193 57.9887 61.8507 58.4834 61.58C58.9781 61.3 59.5101 61.16 60.0794 61.16ZM64.7563 65.108C64.7563 64.3333 64.9149 63.6473 65.2323 63.05C65.5589 62.4527 65.9976 61.9907 66.5483 61.664C67.1083 61.328 67.7243 61.16 68.3963 61.16C69.0029 61.16 69.5303 61.2813 69.9783 61.524C70.4356 61.7573 70.7996 62.0513 71.0703 62.406V61.286H72.6803V69H71.0703V67.852C70.7996 68.216 70.4309 68.5193 69.9643 68.762C69.4976 69.0047 68.9656 69.126 68.3683 69.126C67.7056 69.126 67.0989 68.958 66.5483 68.622C65.9976 68.2767 65.5589 67.8007 65.2323 67.194C64.9149 66.578 64.7563 65.8827 64.7563 65.108ZM71.0703 65.136C71.0703 64.604 70.9583 64.142 70.7343 63.75C70.5196 63.358 70.2349 63.0593 69.8803 62.854C69.5256 62.6487 69.1429 62.546 68.7323 62.546C68.3216 62.546 67.9389 62.6487 67.5843 62.854C67.2296 63.05 66.9403 63.344 66.7163 63.736C66.5016 64.1187 66.3943 64.576 66.3943 65.108C66.3943 65.64 66.5016 66.1067 66.7163 66.508C66.9403 66.9093 67.2296 67.2173 67.5843 67.432C67.9483 67.6373 68.3309 67.74 68.7323 67.74C69.1429 67.74 69.5256 67.6373 69.8803 67.432C70.2349 67.2267 70.5196 66.928 70.7343 66.536C70.9583 66.1347 71.0703 65.668 71.0703 65.136ZM77.8846 61.16C78.4819 61.16 79.0092 61.2813 79.4666 61.524C79.9332 61.7573 80.2972 62.0513 80.5586 62.406V61.286H82.1686V69.126C82.1686 69.8353 82.0192 70.4653 81.7206 71.016C81.4219 71.576 80.9879 72.0147 80.4186 72.332C79.8586 72.6493 79.1866 72.808 78.4026 72.808C77.3572 72.808 76.4892 72.5607 75.7986 72.066C75.1079 71.5807 74.7159 70.918 74.6226 70.078H76.2046C76.3259 70.4793 76.5826 70.8013 76.9746 71.044C77.3759 71.296 77.8519 71.422 78.4026 71.422C79.0466 71.422 79.5646 71.226 79.9566 70.834C80.3579 70.442 80.5586 69.8727 80.5586 69.126V67.838C80.2879 68.202 79.9192 68.51 79.4526 68.762C78.9952 69.0047 78.4726 69.126 77.8846 69.126C77.2126 69.126 76.5966 68.958 76.0366 68.622C75.4859 68.2767 75.0472 67.8007 74.7206 67.194C74.4032 66.578 74.2446 65.8827 74.2446 65.108C74.2446 64.3333 74.4032 63.6473 74.7206 63.05C75.0472 62.4527 75.4859 61.9907 76.0366 61.664C76.5966 61.328 77.2126 61.16 77.8846 61.16ZM80.5586 65.136C80.5586 64.604 80.4466 64.142 80.2226 63.75C80.0079 63.358 79.7232 63.0593 79.3686 62.854C79.0139 62.6487 78.6312 62.546 78.2206 62.546C77.8099 62.546 77.4272 62.6487 77.0726 62.854C76.7179 63.05 76.4286 63.344 76.2046 63.736C75.9899 64.1187 75.8826 64.576 75.8826 65.108C75.8826 65.64 75.9899 66.1067 76.2046 66.508C76.4286 66.9093 76.7179 67.2173 77.0726 67.432C77.4366 67.6373 77.8192 67.74 78.2206 67.74C78.6312 67.74 79.0139 67.6373 79.3686 67.432C79.7232 67.2267 80.0079 66.928 80.2226 66.536C80.4466 66.1347 80.5586 65.668 80.5586 65.136ZM91.3348 64.954C91.3348 65.2433 91.3162 65.5047 91.2788 65.738H85.3848C85.4315 66.354 85.6602 66.8487 86.0708 67.222C86.4815 67.5953 86.9855 67.782 87.5828 67.782C88.4415 67.782 89.0482 67.4227 89.4028 66.704H91.1248C90.8915 67.4133 90.4668 67.9967 89.8508 68.454C89.2442 68.902 88.4882 69.126 87.5828 69.126C86.8455 69.126 86.1828 68.9627 85.5948 68.636C85.0162 68.3 84.5588 67.8333 84.2228 67.236C83.8962 66.6293 83.7328 65.9293 83.7328 65.136C83.7328 64.3427 83.8915 63.6473 84.2088 63.05C84.5355 62.4433 84.9882 61.9767 85.5668 61.65C86.1548 61.3233 86.8268 61.16 87.5828 61.16C88.3108 61.16 88.9595 61.3187 89.5288 61.636C90.0982 61.9533 90.5415 62.4013 90.8588 62.98C91.1762 63.5493 91.3348 64.2073 91.3348 64.954ZM89.6688 64.45C89.6595 63.862 89.4495 63.3907 89.0388 63.036C88.6282 62.6813 88.1195 62.504 87.5128 62.504C86.9622 62.504 86.4908 62.6813 86.0988 63.036C85.7068 63.3813 85.4735 63.8527 85.3988 64.45H89.6688Z" fill="white"/>
<mask id="mask0_855_532" style="mask-type:alpha" maskUnits="userSpaceOnUse" x="56" y="22" width="26" height="26">
<rect x="56" y="22" width="26" height="26" fill="#D9D9D9"/>
</mask>
<g mask="url(#mask0_855_532)">
<path d="M60.3337 41.5002H77.667V32.8335H70.0837V28.5002H60.3337V41.5002ZM60.3337 43.6668C59.7378 43.6668 59.2278 43.4547 58.8035 43.0304C58.3791 42.6061 58.167 42.096 58.167 41.5002V28.5002C58.167 27.9043 58.3791 27.3943 58.8035 26.97C59.2278 26.5456 59.7378 26.3335 60.3337 26.3335H77.667C78.2628 26.3335 78.7729 26.5456 79.1972 26.97C79.6215 27.3943 79.8337 27.9043 79.8337 28.5002V41.5002C79.8337 42.096 79.6215 42.6061 79.1972 43.0304C78.7729 43.4547 78.2628 43.6668 77.667 43.6668H60.3337Z" fill="white"/>
</g>
</svg>
