<svg width="138" height="95" viewBox="0 0 138 95" fill="none" xmlns="http://www.w3.org/2000/svg">
<rect width="138" height="95" rx="3" fill="#424242"/>
<path d="M59.875 39C59.875 36.8625 61.6125 35.125 63.75 35.125H68.75V32.75H63.75C62.0924 32.75 60.5027 33.4085 59.3306 34.5806C58.1585 35.7527 57.5 37.3424 57.5 39C57.5 40.6576 58.1585 42.2473 59.3306 43.4194C60.5027 44.5915 62.0924 45.25 63.75 45.25H68.75V42.875H63.75C61.6125 42.875 59.875 41.1375 59.875 39ZM65 40.25H75V37.75H65V40.25ZM76.25 32.75H71.25V35.125H76.25C78.3875 35.125 80.125 36.8625 80.125 39C80.125 41.1375 78.3875 42.875 76.25 42.875H71.25V45.25H76.25C77.9076 45.25 79.4973 44.5915 80.6694 43.4194C81.8415 42.2473 82.5 40.6576 82.5 39C82.5 37.3424 81.8415 35.7527 80.6694 34.5806C79.4973 33.4085 77.9076 32.75 76.25 32.75Z" fill="white"/>
<path d="M54.646 68.712H57.936V70H53.05V60.27H54.646V68.712ZM60.0827 61.264C59.7934 61.264 59.5507 61.166 59.3547 60.97C59.1587 60.774 59.0607 60.5313 59.0607 60.242C59.0607 59.9527 59.1587 59.71 59.3547 59.514C59.5507 59.318 59.7934 59.22 60.0827 59.22C60.3627 59.22 60.6007 59.318 60.7967 59.514C60.9927 59.71 61.0907 59.9527 61.0907 60.242C61.0907 60.5313 60.9927 60.774 60.7967 60.97C60.6007 61.166 60.3627 61.264 60.0827 61.264ZM60.8667 62.286V70H59.2707V62.286H60.8667ZM66.8541 62.16C67.4608 62.16 68.0021 62.286 68.4781 62.538C68.9634 62.79 69.3414 63.1633 69.6121 63.658C69.8828 64.1527 70.0181 64.75 70.0181 65.45V70H68.4361V65.688C68.4361 64.9973 68.2634 64.47 67.9181 64.106C67.5728 63.7327 67.1014 63.546 66.5041 63.546C65.9068 63.546 65.4308 63.7327 65.0761 64.106C64.7308 64.47 64.5581 64.9973 64.5581 65.688V70H62.9621V62.286H64.5581V63.168C64.8194 62.8507 65.1508 62.6033 65.5521 62.426C65.9628 62.2487 66.3968 62.16 66.8541 62.16ZM75.1059 66.15L78.6619 70H76.5059L73.6499 66.682V70H72.0539V59.64H73.6499V65.66L76.4499 62.286H78.6619L75.1059 66.15ZM82.6059 70.126C81.9992 70.126 81.4532 70.0187 80.9679 69.804C80.4919 69.58 80.1139 69.2813 79.8339 68.908C79.5539 68.5253 79.4045 68.1007 79.3859 67.634H81.0379C81.0659 67.9607 81.2199 68.236 81.4999 68.46C81.7892 68.6747 82.1485 68.782 82.5779 68.782C83.0259 68.782 83.3712 68.698 83.6139 68.53C83.8659 68.3527 83.9919 68.1287 83.9919 67.858C83.9919 67.5687 83.8519 67.354 83.5719 67.214C83.3012 67.074 82.8672 66.92 82.2699 66.752C81.6912 66.5933 81.2199 66.4393 80.8559 66.29C80.4919 66.1407 80.1745 65.912 79.9039 65.604C79.6425 65.296 79.5119 64.89 79.5119 64.386C79.5119 63.9753 79.6332 63.602 79.8759 63.266C80.1185 62.9207 80.4639 62.65 80.9119 62.454C81.3692 62.258 81.8919 62.16 82.4799 62.16C83.3572 62.16 84.0619 62.384 84.5939 62.832C85.1352 63.2707 85.4245 63.8727 85.4619 64.638H83.8659C83.8379 64.2927 83.6979 64.0173 83.4459 63.812C83.1939 63.6067 82.8532 63.504 82.4239 63.504C82.0039 63.504 81.6819 63.5833 81.4579 63.742C81.2339 63.9007 81.1219 64.1107 81.1219 64.372C81.1219 64.5773 81.1965 64.75 81.3459 64.89C81.4952 65.03 81.6772 65.142 81.8919 65.226C82.1065 65.3007 82.4239 65.3987 82.8439 65.52C83.4039 65.6693 83.8612 65.8233 84.2159 65.982C84.5799 66.1313 84.8925 66.3553 85.1539 66.654C85.4152 66.9527 85.5505 67.3493 85.5599 67.844C85.5599 68.2827 85.4385 68.6747 85.1959 69.02C84.9532 69.3653 84.6079 69.636 84.1599 69.832C83.7212 70.028 83.2032 70.126 82.6059 70.126Z" fill="white"/>
</svg>
