<svg width="27" height="31" viewBox="0 0 27 31" fill="none" xmlns="http://www.w3.org/2000/svg">
<path d="M9.66667 20.2083V17.3333M9.66667 17.3333V7.75C9.66667 7.24167 9.8686 6.75416 10.228 6.39471C10.5875 6.03527 11.075 5.83333 11.5833 5.83333C12.0917 5.83333 12.5792 6.03527 12.9386 6.39471C13.2981 6.75416 13.5 7.24167 13.5 7.75V15.4167H19.9266C21.6707 15.4167 23.0833 16.8293 23.0833 18.5734V20.2083C23.0833 22.4958 22.1746 24.6896 20.5571 26.3071C18.9396 27.9246 16.7458 28.8333 14.4583 28.8333H13.5C11.4667 28.8333 9.51663 28.0256 8.07885 26.5878C6.64107 25.15 5.83333 23.2 5.83333 21.1667C5.83333 20.15 6.2372 19.175 6.95609 18.4561C7.67498 17.7372 8.65 17.3333 9.66667 17.3333ZM16.375 11.5833H20.2083C21.4792 11.5833 22.6979 11.0785 23.5966 10.1799C24.4952 9.28128 25 8.0625 25 6.79167C25 5.52084 24.4952 4.30206 23.5966 3.40345C22.6979 2.50483 21.4792 2 20.2083 2H6.79167C5.52084 2 4.30206 2.50483 3.40345 3.40345C2.50483 4.30206 2 5.52084 2 6.79167C2 8.0625 2.50483 9.28128 3.40345 10.1799C4.30206 11.0785 5.52084 11.5833 6.79167 11.5833" stroke="white" stroke-width="2.5"/>
</svg>
