<svg width="49" height="49" viewBox="0 0 49 49" fill="none" xmlns="http://www.w3.org/2000/svg">
<circle cx="24.5" cy="24.5" r="24.5" fill="#C4C4C4"/>
<mask id="mask0_125_2534" style="mask-type:alpha" maskUnits="userSpaceOnUse" x="10" y="9" width="32" height="32">
<rect x="10" y="9" width="32" height="32" fill="#D9D9D9"/>
</mask>
<g mask="url(#mask0_125_2534)">
<path d="M13.2 23.4C13.2 21.4358 13.5944 19.6337 14.3833 17.9937C15.1722 16.3535 16.2666 14.9333 17.6666 13.7333L19.3666 15.4C18.2111 16.3556 17.2944 17.5278 16.6166 18.9167C15.9388 20.3056 15.6 21.8 15.6 23.4H13.2ZM36.4 23.4C36.4 21.7778 36.0611 20.2722 35.3833 18.8833C34.7055 17.4945 33.7777 16.3222 32.6 15.3667L34.3333 13.6667C35.7111 14.8445 36.8 16.2722 37.6 17.95C38.4 19.6278 38.8 21.4445 38.8 23.4H36.4ZM16.4 33.8V31.4H18V23.4C18 21.4667 18.5944 19.7667 19.7833 18.3C20.9722 16.8333 22.5111 15.9222 24.4 15.5667V13.8C24.4 13.3556 24.5555 12.9778 24.8666 12.6667C25.1777 12.3556 25.5555 12.2 26 12.2C26.4444 12.2 26.8222 12.3556 27.1333 12.6667C27.4444 12.9778 27.6 13.3556 27.6 13.8V15.5667C29.4888 15.9222 31.0277 16.8333 32.2166 18.3C33.4055 19.7667 34 21.4667 34 23.4V31.4H35.6V33.8H16.4ZM25.993 37.8C25.331 37.8 24.7666 37.565 24.3 37.095C23.8333 36.625 23.6 36.06 23.6 35.4H28.4C28.4 36.0667 28.1643 36.6333 27.693 37.1C27.2216 37.5667 26.655 37.8 25.993 37.8ZM20.4 31.4H31.6V23.4C31.6 21.8445 31.0555 20.5222 29.9666 19.4333C28.8777 18.3445 27.5555 17.8 26 17.8C24.4444 17.8 23.1222 18.3445 22.0333 19.4333C20.9444 20.5222 20.4 21.8445 20.4 23.4V31.4Z" fill="#1C1B1F"/>
</g>
</svg>
